{"title":"Nim's Island 2008 DVDrip English Klam","uid":8116842,"size":1894241231,"categoryP":"video","categoryS":"movies","magnet":"?xt=urn:btih:58a8d4f791ac261d1b436e02907c5275328b9172&amp;dn=Nim%27s+Island+2008+DVDrip+English+Klam&amp;tr=udp%3A%2F%2Ftracker.openbittorrent.com%3A80&amp;tr=udp%3A%2F%2Fopen.demonii.com%3A1337&amp;tr=udp%3A%2F%2Ftracker.coppersurfer.tk%3A6969&amp;tr=udp%3A%2F%2Fexodus.desync.com%3A6969","seeders":1,"leechers":0,"uploader":"Klambake","files":-1,"time":1360320269,"description":"With: Jodie Foster, Abigail Breslin and Gerard Butler\n\nAlles kan gebeuren op Nim's Island, een magische plek die beheerst wordt door de gedachten van een meisje, Nim. Een wereld die gespiegeld is aan haar favoriete boekpersonage, Alex Rover, 's werelds grootste avonturier. Maar de schrijfster van de boeken, Alexandra, leeft gewoon een eenzaam bestaan in de grote stad. Wanneer Nim's vader vermist wordt, brengt een serie gebeurtenissen Nim bij Alexandra en moeten ze moed ontlenen aan Alex Rover om Nim's eiland te doorkruisen.\n\nA young girl inhabits an isolated island with her scientist father and communicates with a reclusive author of the novel she's reading. \n &lt;a href=&quot;\nhttp://www.imdb.com/title/tt0410377&quot; rel=&quot;nofollow&quot; target=&quot;_NEW&quot;&gt;\nhttp://www.imdb.com/title/tt0410377&lt;/a&gt;\t\n\n------------------------ Dutch Friends ------------------------\n---------------------------------------------------------------\n- Bezoek ook eens mijn vrienden op: &lt;a href=&quot; http://www.Film-Test.nl&quot; rel=&quot;nofollow&quot; target=&quot;_NEW&quot;&gt; http://www.Film-Test.nl&lt;/a&gt; --\n----- voor mijn Nederlandse Sync. ondertitels ---- en meer ----\n------- http://www.Film-Test.nl ---- Over Films en meer -------\n---------------------------------------------------------------\n\nGeneral:\n\nComplete name                    : Nim's IslandNim's Island.avi\nFormat                           : AVI\nFormat/Info                      : Audio Video Interleave\nFile size                        : 1.76 GiB\nDuration                         : 1h 31mn\nOverall bit rate                 : 2 745 Kbps\n\nVideo:\n\nFormat                           : MPEG-4 Visual\nFormat profile                   : Simple@L3\nFormat settings, BVOP            : No\nFormat settings, QPel            : No\nFormat settings, GMC             : No warppoints\nFormat settings, Matrix          : Default (H.263)\nCodec ID                         : XVID\nCodec ID/Hint                    : XviD\nDuration                         : 1h 31mn\nBit rate                         : 2 286 Kbps\nWidth                            : 720 pixels\nHeight                           : 304 pixels\nDisplay aspect ratio             : 2.35:1\nFrame rate                       : 25.000 fps\nColor space                      : YUV\nChroma subsampling               : 4:2:0\nBit depth                        : 8 bits\nScan type                        : Progressive\nCompression mode                 : Lossy\nBits/(Pixel*Frame)               : 0.418\nStream size                      : 1.47 GiB (83%)\nWriting library                  : XviD 1.1.2 (UTC 2006-11-01)\n\nAudio:\n\nFormat                           : AC-3\nFormat/Info                      : Audio Coding 3\nMode extension                   : CM (complete main)\nCodec ID                         : 2000\nDuration                         : 1h 31mn\nBit rate mode                    : Constant\nBit rate                         : 448 Kbps\nChannel(s)                       : 6 channels\nChannel positions                : Front: L C R, Side: L R, LFE\nSampling rate                    : 48.0 KHz\nBit depth                        : 16 bits\nCompression mode                 : Lossy\nStream size                      : 294 MiB (16%)\nAlignment                        : Aligned on interleaves\nInterleave, duration             : 32 ms (0.80 video frame)\nInterleave, preload duration     : 64 ms","torrent":{"xt":"urn:btih:58a8d4f791ac261d1b436e02907c5275328b9172","amp;dn":"Nim%27s+Island+2008+DVDrip+English+Klam","amp;tr":["udp%3A%2F%2Ftracker.openbittorrent.com%3A80","udp%3A%2F%2Fopen.demonii.com%3A1337","udp%3A%2F%2Ftracker.coppersurfer.tk%3A6969","udp%3A%2F%2Fexodus.desync.com%3A6969"],"infoHash":"58a8d4f791ac261d1b436e02907c5275328b9172","infoHashBuffer":{"type":"Buffer","data":[88,168,212,247,145,172,38,29,27,67,110,2,144,124,82,117,50,139,145,114]},"announce":[],"urlList":[]}}